<?xml version="1.0" encoding="UTF-8"?>
<svg version="1.1" xmlns="http://www.w3.org/2000/svg" width="200" height="80">
<path d="M0 0 C66 0 132 0 200 0 C200 26.4 200 52.8 200 80 C134 80 68 80 0 80 C0 53.6 0 27.2 0 0 Z " fill="#FDFBFB" transform="translate(0,0)"/>
<path d="M0 0 C3.98398634 -0.06930904 7.96641389 -0.12890491 11.95068359 -0.16479492 C13.96336248 -0.18709408 15.97584584 -0.22523653 17.98828125 -0.26367188 C25.02879818 -0.3167411 30.67779661 -0.24176164 37 3 C41.00003682 7.20516691 42.33266768 10.05259176 42.30078125 15.8984375 C41.82762253 19.20440359 39.98571542 21.39374851 38 24 C37.76806826 26.22468387 37.76806826 26.22468387 39.9375 28 C40.618125 28.66 41.29875 29.32 42 30 C43.86375553 33.72751106 43.41304782 37.93210485 43 42 C41.58452048 45.63980447 40.32397596 47.30947805 36.84765625 49.12255859 C28.91304983 52.25613154 21.77171324 52.47803478 13.3125 52.25 C12.02666016 52.23195312 10.74082031 52.21390625 9.41601562 52.1953125 C6.27701563 52.14863592 3.13840475 52.07691121 0 52 C0 46.72 0 41.44 0 36 C2.97 36 5.94 36 9 36 C9 38.31 9 40.62 9 43 C11.8966148 42.88569952 14.79178316 42.7589576 17.6875 42.625 C18.50412109 42.5940625 19.32074219 42.563125 20.16210938 42.53125 C26.32680297 42.26510112 26.32680297 42.26510112 32 40 C32.89830839 36.94727535 32.89830839 36.94727535 33 34 C27.73513326 29.61812864 23.60458291 29.43448189 16.89453125 29.5390625 C15.93350998 29.53997894 14.97248871 29.54089539 13.98234558 29.5418396 C11.9592899 29.54786173 9.93624255 29.5635658 7.91333008 29.58837891 C4.81233011 29.62500201 1.7125223 29.62939722 -1.38867188 29.62890625 C-3.35678119 29.63873374 -5.3248824 29.65038913 -7.29296875 29.6640625 C-8.22110886 29.66628815 -9.14924896 29.66851379 -10.10551453 29.67080688 C-10.96683487 29.68356659 -11.82815521 29.69632629 -12.71557617 29.70947266 C-13.47247238 29.71709625 -14.22936859 29.72471985 -15.00920105 29.73257446 C-17.31702188 29.89430157 -17.31702188 29.89430157 -20 32 C-23.61550392 32.46155369 -25.33636094 32.45406883 -28.375 30.375 C-30.48706506 27.28813568 -30.61195145 25.6717087 -30 22 C-28.375 19.625 -28.375 19.625 -26 18 C-21.89222251 17.49700684 -20.49124017 17.67250655 -17 20 C-14.90234623 20.30195715 -14.90234623 20.30195715 -12.57617188 20.25878906 C-11.68514771 20.26509338 -10.79412354 20.27139771 -9.87609863 20.27789307 C-8.91667358 20.2738446 -7.95724854 20.26979614 -6.96875 20.265625 C-5.98128784 20.26753845 -4.99382568 20.2694519 -3.97644043 20.27142334 C-1.88842514 20.2727845 0.19959862 20.2690929 2.28759766 20.26074219 C5.48749767 20.25004181 8.68683624 20.26063994 11.88671875 20.2734375 C13.91406374 20.27211589 15.94140838 20.26955348 17.96875 20.265625 C19.40788757 20.27169769 19.40788757 20.27169769 20.87609863 20.27789307 C21.7671228 20.27158875 22.65814697 20.26528442 23.57617188 20.25878906 C24.35988159 20.25719788 25.14359131 20.25560669 25.9510498 20.25396729 C28.31004891 20.11695611 28.31004891 20.11695611 31 18 C31.5 15 31.5 15 31 12 C27.92308234 9.94872156 27.06355001 9.72739128 23.55078125 9.5859375 C22.70322266 9.54726563 21.85566406 9.50859375 20.98242188 9.46875 C20.10134766 9.4378125 19.22027344 9.406875 18.3125 9.375 C17.41982422 9.33632813 16.52714844 9.29765625 15.60742188 9.2578125 C13.4051538 9.16359782 11.20289278 9.07798412 9 9 C9 11.31 9 13.62 9 16 C6.03 16 3.06 16 0 16 C0 10.72 0 5.44 0 0 Z " fill="#E93532" transform="translate(53,11)"/>
<path d="M0 0 C12 0 12 0 15.18359375 2.81640625 C15.97766276 4.03835376 16.72911898 5.28896255 17.4375 6.5625 C17.81841797 7.17158203 18.19933594 7.78066406 18.59179688 8.40820312 C19.35756989 9.63266251 20.10832425 10.86665131 20.84326172 12.10986328 C22.73076931 15.19409371 24.86921087 18.08002971 27 21 C30.60181703 17.65784885 33.32320498 13.94065817 36.125 9.9375 C36.56714844 9.31294922 37.00929687 8.68839844 37.46484375 8.04492188 C39.34427899 5.38475448 41.19322014 2.71016979 43 0 C46.96 0 50.92 0 55 0 C55 17.16 55 34.32 55 52 C51.7 52 48.4 52 45 52 C44.67 40.12 44.34 28.24 44 16 C39.56354644 22.15624367 39.56354644 22.15624367 35.14550781 28.32568359 C34.58702148 29.09219238 34.02853516 29.85870117 33.453125 30.6484375 C32.60476074 31.82672119 32.60476074 31.82672119 31.73925781 33.02880859 C29.94307647 35.0645144 28.49242572 35.98297571 26 37 C23.87410102 34.06314964 21.74943696 31.12540807 19.625 28.1875 C19.02171875 27.35412109 18.4184375 26.52074219 17.796875 25.66210938 C17.21679688 24.85966797 16.63671875 24.05722656 16.0390625 23.23046875 C15.50490723 22.49207764 14.97075195 21.75368652 14.42041016 20.99291992 C13.2495259 19.35009967 12.11904194 17.67856292 11 16 C10.67 27.88 10.34 39.76 10 52 C6.7 52 3.4 52 0 52 C0 34.84 0 17.68 0 0 Z " fill="#081013" transform="translate(99,11)"/>
<path d="M0 0 C12.87 0 25.74 0 39 0 C39 2.97 39 5.94 39 9 C29.43 9 19.86 9 10 9 C10 12.96 10 16.92 10 21 C19.24 21 28.48 21 38 21 C38 23.97 38 26.94 38 30 C28.76 30 19.52 30 10 30 C10 33.96 10 37.92 10 42 C19.57 42 29.14 42 39 42 C39 45.3 39 48.6 39 52 C26.13 52 13.26 52 0 52 C0 34.84 0 17.68 0 0 Z " fill="#091014" transform="translate(158,11)"/>
<path d="M0 0 C2.265625 1.60546875 2.265625 1.60546875 3.265625 4.60546875 C-0.199375 7.08046875 -0.199375 7.08046875 -3.734375 9.60546875 C-5.4359375 8.61546875 -5.4359375 8.61546875 -7.171875 7.60546875 C-11.76757398 5.34409306 -15.67718263 4.58345775 -20.734375 5.60546875 C-25.9319834 7.81490507 -29.2777664 10.44067115 -31.734375 15.60546875 C-32.56451959 22.108268 -32.87771895 29.21912162 -28.734375 34.60546875 C-24.85279055 38.4870532 -21.52533651 38.90436725 -16.234375 39.04296875 C-11.24702335 38.91246922 -8.10722645 38.07220546 -3.734375 35.60546875 C-0.66345064 36.48287571 1.14243029 38.26995456 3.265625 40.60546875 C1.88652838 44.01390963 0.65999006 45.2728441 -2.671875 46.79296875 C-3.36152344 47.11652344 -4.05117188 47.44007812 -4.76171875 47.7734375 C-11.97928141 50.8176768 -19.88127758 50.64691371 -27.171875 47.85546875 C-35.17785091 44.14663007 -38.37878564 39.65888322 -41.734375 31.60546875 C-43.92416379 24.64803855 -43.76191523 16.92714247 -40.734375 10.29296875 C-31.73061929 -5.52718959 -15.41281536 -8.17040605 0 0 Z " fill="#070F13" transform="translate(45.734375,14.39453125)"/>
<path d="M0 0 C4.29 0 8.58 0 13 0 C13 1.32 13 2.64 13 4 C8.71 4 4.42 4 0 4 C0 2.68 0 1.36 0 0 Z " fill="#F18280" transform="translate(99,66)"/>
<path d="M0 0 C2.97 0 5.94 0 9 0 C9 0.99 9 1.98 9 3 C9.66 3 10.32 3 11 3 C11 2.01 11 1.02 11 0 C12.65 0 14.3 0 16 0 C15.34 1.32 14.68 2.64 14 4 C9.38 4 4.76 4 0 4 C0 2.68 0 1.36 0 0 Z " fill="#F39190" transform="translate(135,66)"/>
<path d="M0 0 C3.63 0 7.26 0 11 0 C10.67 1.32 10.34 2.64 10 4 C6.7 4 3.4 4 0 4 C0 2.68 0 1.36 0 0 Z " fill="#F39593" transform="translate(53,66)"/>
<path d="M0 0 C3.63 0 7.26 0 11 0 C11 1.33333333 11 2.66666667 11 4 C7.37 4 3.74 4 0 4 C0 2.68 0 1.36 0 0 Z " fill="#F28C8A" transform="translate(175,66)"/>
<path d="M0 0 C3.63 0 7.26 0 11 0 C11 1.32 11 2.64 11 4 C7.7 4 4.4 4 1 4 C0.67 2.68 0.34 1.36 0 0 Z " fill="#F39290" transform="translate(65,66)"/>
<path d="M0 0 C3.63 0 7.26 0 11 0 C11 1.32 11 2.64 11 4 C7.7 4 4.4 4 1 4 C0.67 2.68 0.34 1.36 0 0 Z " fill="#F39291" transform="translate(123,66)"/>
<path d="M0 0 C3.63 0 7.26 0 11 0 C10.01 0.495 10.01 0.495 9 1 C9 1.66 9 2.32 9 3 C9.66 3.33 10.32 3.66 11 4 C7 4 3 4 -1 4 C-0.67 2.68 -0.34 1.36 0 0 Z " fill="#F1807E" transform="translate(153,66)"/>
<path d="M0 0 C2.64 0 5.28 0 8 0 C8 1.32 8 2.64 8 4 C5.36 4 2.72 4 0 4 C0 2.68 0 1.36 0 0 Z " fill="#F39795" transform="translate(166,66)"/>
<path d="M0 0 C2.31 0 4.62 0 7 0 C7.33 0.66 7.66 1.32 8 2 C8.33 1.34 8.66 0.68 9 0 C9.66 0 10.32 0 11 0 C11 0.99 11 1.98 11 3 C7.26513121 3.5745952 3.78706732 4 0 4 C0 2.68 0 1.36 0 0 Z " fill="#EF6E6C" transform="translate(78,66)"/>
<path d="M0 0 C2.97 0 5.94 0 9 0 C8.01 0.495 8.01 0.495 7 1 C7 1.66 7 2.32 7 3 C7.66 3.33 8.32 3.66 9 4 C6.03 4 3.06 4 0 4 C0 2.68 0 1.36 0 0 Z " fill="#F18280" transform="translate(187,66)"/>
<path d="M0 0 C2.31 0 4.62 0 7 0 C7.33 1.32 7.66 2.64 8 4 C5.03 4 2.06 4 -1 4 C-0.67 2.68 -0.34 1.36 0 0 Z " fill="#F28B8A" transform="translate(90,66)"/>
<path d="M0 0 C0 1.32 0 2.64 0 4 C-1.65 4 -3.3 4 -5 4 C-5 3.34 -5 2.68 -5 2 C-5.66 1.67 -6.32 1.34 -7 1 C-4.53721199 -0.231394 -2.7204945 -0.07159196 0 0 Z " fill="#F5A7A5" transform="translate(112,66)"/>
</svg>
